<svg xmlns="http://www.w3.org/2000/svg" width="100" height="100" viewBox="0 0 100 100" opacity=".03">
  <circle cx="3" cy="15" r=".8" fill="#fff"/>
  <circle cx="22" cy="7" r=".6" fill="#fff"/>
  <circle cx="45" cy="23" r=".9" fill="#fff"/>
  <circle cx="67" cy="11" r=".5" fill="#fff"/>
  <circle cx="89" cy="28" r=".7" fill="#fff"/>
  <circle cx="12" cy="35" r=".8" fill="#fff"/>
  <circle cx="34" cy="42" r=".5" fill="#fff"/>
  <circle cx="56" cy="31" r=".9" fill="#fff"/>
  <circle cx="78" cy="48" r=".6" fill="#fff"/>
  <circle cx="92" cy="55" r=".7" fill="#fff"/>
  <circle cx="17" cy="62" r=".5" fill="#fff"/>
  <circle cx="39" cy="58" r=".8" fill="#fff"/>
  <circle cx="61" cy="67" r=".6" fill="#fff"/>
  <circle cx="83" cy="72" r=".9" fill="#fff"/>
  <circle cx="8" cy="82" r=".7" fill="#fff"/>
  <circle cx="28" cy="88" r=".5" fill="#fff"/>
  <circle cx="50" cy="93" r=".8" fill="#fff"/>
  <circle cx="71" cy="85" r=".6" fill="#fff"/>
  <circle cx="95" cy="78" r=".7" fill="#fff"/>
  <circle cx="42" cy="5" r=".9" fill="#fff"/>
  <circle cx="74" cy="19" r=".5" fill="#fff"/>
  <circle cx="25" cy="50" r=".7" fill="#fff"/>
  <circle cx="63" cy="45" r=".8" fill="#fff"/>
  <circle cx="15" cy="72" r=".6" fill="#fff"/>
  <circle cx="87" cy="62" r=".5" fill="#fff"/>
  <circle cx="48" cy="77" r=".6" fill="#fff"/>
  <circle cx="5" cy="45" r=".7" fill="#fff"/>
  <circle cx="77" cy="35" r=".5" fill="#fff"/>
  <circle cx="32" cy="22" r=".8" fill="#fff"/>
  <circle cx="54" cy="52" r=".6" fill="#fff"/>
  <circle cx="10" cy="60" r=".4" fill="#fff"/>
  <circle cx="90" cy="42" r=".5" fill="#fff"/>
  <circle cx="36" cy="75" r=".7" fill="#fff"/>
  <circle cx="68" cy="55" r=".4" fill="#fff"/>
  <circle cx="80" cy="90" r=".6" fill="#fff"/>
  <circle cx="20" cy="28" r=".5" fill="#fff"/>
</svg>
